<svg xmlns="http://www.w3.org/2000/svg" xmlns:xlink="http://www.w3.org/1999/xlink" version="1.1" x="0px" y="0px" viewBox="0 0 100 125" enable-background="new 0 0 100 100" xml:space="preserve"><g><path d="M88.754,70.54v-7.374h2.721c3.195,0,5.793-2.599,5.793-5.793V42.627c0-3.194-2.598-5.794-5.793-5.794h-2.721V29.46   c0-3.193-2.6-5.793-5.795-5.793H8.525c-3.195,0-5.793,2.6-5.793,5.793v41.08c0,3.193,2.598,5.793,5.793,5.793h74.434   C86.154,76.333,88.754,73.733,88.754,70.54z M8.525,71.066c-0.29,0-0.527-0.236-0.527-0.526V29.46c0-0.289,0.237-0.526,0.527-0.526   h74.434c0.291,0,0.527,0.237,0.527,0.526v41.08c0,0.29-0.236,0.526-0.527,0.526H8.525z M11.027,32.445v35.286H80.02V32.445H11.027z   "/></g><text x="0" y="115" fill="#000000" font-size="5px" font-weight="bold" font-family="'Helvetica Neue', Helvetica, Arial-Unicode, Arial, Sans-serif">Created by Kidiladon</text><text x="0" y="120" fill="#000000" font-size="5px" font-weight="bold" font-family="'Helvetica Neue', Helvetica, Arial-Unicode, Arial, Sans-serif">from the Noun Project</text></svg>