<svg xmlns="http://www.w3.org/2000/svg" data-name="Layer 1" viewBox="0 0 100 125" x="0px" y="0px"><title>01</title><path d="M48.35,34.4a7.22,7.22,0,1,0-7.22-7.22A7.23,7.23,0,0,0,48.35,34.4Zm0-12.45a5.22,5.22,0,1,1-5.22,5.22A5.23,5.23,0,0,1,48.35,21.95Z"/><path d="M55.58,60a7.22,7.22,0,1,0-7.22,7.22A7.23,7.23,0,0,0,55.58,60ZM43.13,60a5.22,5.22,0,1,1,5.22,5.22A5.23,5.23,0,0,1,43.13,60Z"/><path d="M64.77,50.81a7.22,7.22,0,1,0-7.22-7.22A7.23,7.23,0,0,0,64.77,50.81Zm0-12.45a5.22,5.22,0,1,1-5.22,5.22A5.23,5.23,0,0,1,64.77,38.36Z"/><path d="M31.94,36.36a7.22,7.22,0,1,0,7.22,7.22A7.23,7.23,0,0,0,31.94,36.36Zm0,12.45a5.22,5.22,0,1,1,5.22-5.22A5.23,5.23,0,0,1,31.94,48.81Z"/><path d="M74.83,78.59H60.33a37,37,0,1,0-12,2H74.83A11.84,11.84,0,0,1,86.65,92.42a1,1,0,0,0,2,0A13.84,13.84,0,0,0,74.83,78.59Zm-61.48-35a35,35,0,1,1,35,35A35,35,0,0,1,13.35,43.59Z"/><text x="0" y="115" fill="#000000" font-size="5px" font-weight="bold" font-family="'Helvetica Neue', Helvetica, Arial-Unicode, Arial, Sans-serif">Created by Kirsh</text><text x="0" y="120" fill="#000000" font-size="5px" font-weight="bold" font-family="'Helvetica Neue', Helvetica, Arial-Unicode, Arial, Sans-serif">from the Noun Project</text></svg>