<svg xmlns="http://www.w3.org/2000/svg" xmlns:xlink="http://www.w3.org/1999/xlink" version="1.1" x="0px" y="0px" viewBox="0 0 24 30" style="enable-background:new 0 0 24 24;" xml:space="preserve"><g><path d="M5.657,19.458V15.27c0-0.356-0.288-0.644-0.644-0.644s-0.644,0.288-0.644,0.644v4.189c0,0.356,0.288,0.644,0.644,0.644   S5.657,19.814,5.657,19.458z"/><path d="M8.506,20.103c0.356,0,0.644-0.288,0.644-0.644v-6.622c0-0.356-0.288-0.644-0.644-0.644c-0.356,0-0.644,0.288-0.644,0.644   v6.622C7.862,19.814,8.151,20.103,8.506,20.103z"/><path d="M11.356,10.808v8.65c0,0.356,0.288,0.644,0.644,0.644s0.644-0.288,0.644-0.644v-8.65c0-0.356-0.288-0.644-0.644-0.644   S11.356,10.453,11.356,10.808z"/><path d="M14.85,7.562v11.897c0,0.356,0.288,0.644,0.644,0.644c0.356,0,0.644-0.288,0.644-0.644V7.562   c0-0.356-0.288-0.644-0.644-0.644C15.138,6.918,14.85,7.206,14.85,7.562z"/><path d="M18.987,20.103c0.356,0,0.644-0.288,0.644-0.644V4.542c0-0.356-0.288-0.644-0.644-0.644c-0.356,0-0.644,0.288-0.644,0.644   v14.917C18.343,19.814,18.632,20.103,18.987,20.103z"/></g><text x="0" y="39" fill="#000000" font-size="5px" font-weight="bold" font-family="'Helvetica Neue', Helvetica, Arial-Unicode, Arial, Sans-serif">Created by AlePio</text><text x="0" y="44" fill="#000000" font-size="5px" font-weight="bold" font-family="'Helvetica Neue', Helvetica, Arial-Unicode, Arial, Sans-serif">from the Noun Project</text></svg>